<svg width="51" height="49" viewBox="0 0 51 49" fill="none" xmlns="http://www.w3.org/2000/svg">
<path d="M24.5 1C37.4787 1 48 11.5213 48 24.5V24.5C48 37.4787 37.4787 48 24.5 48V48C11.5213 48 1 37.4787 1 24.5V24.5" stroke="#F1F1F1" stroke-linecap="round" stroke-linejoin="round"/>
<path d="M8.52506 26.1241V27.1951H12.6704V31.5388H13.7811V27.1951H17.9265V26.1241H13.7811V21.8399H12.6704V26.1241H8.52506ZM18.9789 22.0977V23.3671C20.6252 23.1489 21.8351 22.1771 22.5293 20.8482V32.6099H23.7987V18.7259H22.7078C22.1723 20.4713 20.7839 21.7804 18.9789 22.0977ZM26.8956 25.6877C26.8956 30.1703 28.7203 32.8875 31.755 32.8875C34.7896 32.8875 36.5945 30.2099 36.5945 25.6877C36.5945 21.1853 34.75 18.4284 31.755 18.4284C28.76 18.4284 26.8956 21.1853 26.8956 25.6877ZM28.2047 25.6877C28.2047 21.6614 29.4344 19.5193 31.755 19.5193C34.0359 19.5193 35.2855 21.701 35.2855 25.6877C35.2855 29.6744 34.0558 31.8165 31.755 31.8165C29.474 31.8165 28.2047 29.6744 28.2047 25.6877Z" fill="white"/>
</svg>
